<svg width="96" height="96" viewBox="0 0 96 96" fill="none" xmlns="http://www.w3.org/2000/svg">
<rect width="96" height="96" fill="#E5E5E5"/>
<rect width="96" height="96" fill="#323234"/>
<path fill-rule="evenodd" clip-rule="evenodd" d="M13.9701 8H81.9213C85.2863 8 88 10.7137 88 13.9701V81.9213C88 85.2863 85.2863 88 81.9213 88H13.9701C10.7137 88 8 85.2863 8 81.9213V13.9701C8 10.7137 10.7137 8 13.9701 8ZM47.9457 27.3216C59.4518 27.3216 68.6784 36.5482 68.6784 47.9457C68.6784 59.4518 59.4518 68.6784 47.9457 68.6784C36.5482 68.6784 27.3216 59.4518 27.3216 47.9457C27.3216 36.5482 36.5482 27.3216 47.9457 27.3216ZM20.0488 13.3189C23.6309 13.3189 26.5617 16.2497 26.5617 19.8318C26.5617 23.5224 23.6309 26.4532 20.0488 26.4532C16.3582 26.4532 13.4274 23.5224 13.4274 19.8318C13.4274 16.2497 16.3582 13.3189 20.0488 13.3189ZM47.9457 22.8711C61.8399 22.8711 73.0204 34.1601 73.0204 47.9457C73.0204 61.8399 61.8399 73.0204 47.9457 73.0204C34.1601 73.0204 22.8711 61.8399 22.8711 47.9457C22.8711 34.1601 34.1601 22.8711 47.9457 22.8711Z" fill="#F6E56F"/>
</svg>
